<?xml version="1.0" encoding="UTF-8" standalone="no"?>
<svg
   xmlns:xhtml="http://www.w3.org/1999/xhtml"
   xmlns:dc="http://purl.org/dc/elements/1.1/"
   xmlns:cc="http://creativecommons.org/ns#"
   xmlns:rdf="http://www.w3.org/1999/02/22-rdf-syntax-ns#"
   xmlns:svg="http://www.w3.org/2000/svg"
   xmlns="http://www.w3.org/2000/svg"
   xmlns:sodipodi="http://sodipodi.sourceforge.net/DTD/sodipodi-0.dtd"
   xmlns:inkscape="http://www.inkscape.org/namespaces/inkscape"
   version="1.1"
   x="0px"
   y="0px"
   viewBox="0 0 1500 1500"
   enable-background="new 0 0 1000 1000"
   xml:space="preserve"
   id="svg1177"
   sodipodi:docname="humidity-white.svg"
   width="1500"
   height="1500"
   inkscape:version="1.0.1 (3bc2e813f5, 2020-09-07, custom)"><defs
   id="defs1181" /><sodipodi:namedview
   pagecolor="#ffffff"
   bordercolor="#666666"
   borderopacity="1"
   objecttolerance="10"
   gridtolerance="10"
   guidetolerance="10"
   inkscape:pageopacity="0"
   inkscape:pageshadow="2"
   inkscape:window-width="2558"
   inkscape:window-height="1414"
   id="namedview1179"
   showgrid="false"
   inkscape:zoom="0.89574205"
   inkscape:cx="996.64024"
   inkscape:cy="820.99902"
   inkscape:window-x="0"
   inkscape:window-y="24"
   inkscape:window-maximized="1"
   inkscape:current-layer="svg1177"
   inkscape:document-rotation="0" />
<metadata
   id="metadata1169"> Svg Vector Icons : http://www.onlinewebfonts.com/icon <rdf:RDF><cc:Work
     rdf:about=""><dc:format>image/svg+xml</dc:format><dc:type
       rdf:resource="http://purl.org/dc/dcmitype/StillImage" /><dc:title></dc:title></cc:Work></rdf:RDF></metadata>
<g
   id="g1175"
   transform="matrix(0.84216303,0,0,1,328.92078,250.00194)"
   style="fill:#ffffff;fill-opacity:1;stroke:none;stroke-width:1.00157;stroke-miterlimit:4;stroke-dasharray:none"><g
     transform="matrix(0.1,0,0,-0.1,0,512)"
     id="g1173"
     style="fill:#ffffff;fill-opacity:1;stroke:none;stroke-width:10.0157;stroke-miterlimit:4;stroke-dasharray:none"><path
       d="M 4968.9,4991.2 C 4953.6,4970.1 4407.5326,4099.2276 4217.7326,3863.5276 3155.5262,2247.1949 2525.7,1724 1973.8,618.3 1416.2,-502.7 1305,-1108.3 1494.7,-1966.8 c 155.2,-697.5 490.6,-1295.4 1006,-1793.6 318.1,-308.5 557.6,-475.2 946.6,-663 1352.9,-653.5 2960.7,-392.8 4041.4,651.5 523.1,507.8 858.5,1105.7 1015.6,1805.1 151.5,680.3 109.4,1153.6 -168.5,1904.8 C 8228.5,229.3 7971.6956,638.88584 7020.4418,1614.0911 5816.3803,3028.411 5340.2831,2927.5177 5026.4,4991.2 c -28.7,38.4 -30.6,38.4 -57.5,0 z M 6312.2295,-3802.11 C 4437.0449,-4412.0422 2849.17,-3637.3156 2290,-2148.8 c -111.2,373.7 -139.9,933.2 -70.9,1358.7 65.2,402.4 212.7,827.8 392.8,1144 84.3,145.6 268.3,406.2 279.8,394.7 4.4901,-2959.7902 1576.5193,-4059.7923 3420.5295,-4550.71 z"
       id="path1171"
       style="fill:#ffffff;fill-opacity:1;stroke:none;stroke-width:10.0157;stroke-miterlimit:4;stroke-dasharray:none"
       sodipodi:nodetypes="cccccccccccccccccc" /></g></g>
<xhtml:iframe
   class="cleanslate hidden"
   src="humidity_files/commandline.html"
   id="cmdline_iframe"
   style="height: 0px !important;" /></svg>
