<?xml version="1.0" encoding="UTF-8" standalone="no"?>
<svg
   xmlns:xhtml="http://www.w3.org/1999/xhtml"
   xmlns:dc="http://purl.org/dc/elements/1.1/"
   xmlns:cc="http://creativecommons.org/ns#"
   xmlns:rdf="http://www.w3.org/1999/02/22-rdf-syntax-ns#"
   xmlns:svg="http://www.w3.org/2000/svg"
   xmlns="http://www.w3.org/2000/svg"
   xmlns:sodipodi="http://sodipodi.sourceforge.net/DTD/sodipodi-0.dtd"
   xmlns:inkscape="http://www.inkscape.org/namespaces/inkscape"
   version="1.1"
   id="Capa_1"
   x="0px"
   y="0px"
   viewBox="0 0 320.00001 320"
   xml:space="preserve"
   sodipodi:docname="temperature-white.svg"
   width="320"
   height="320"
   inkscape:version="1.0.1 (3bc2e813f5, 2020-09-07, custom)"><metadata
   id="metadata1073"><rdf:RDF><cc:Work
       rdf:about=""><dc:format>image/svg+xml</dc:format><dc:type
         rdf:resource="http://purl.org/dc/dcmitype/StillImage" /><dc:title></dc:title></cc:Work></rdf:RDF></metadata><defs
   id="defs1071" /><sodipodi:namedview
   pagecolor="#ffffff"
   bordercolor="#666666"
   borderopacity="1"
   objecttolerance="10"
   gridtolerance="10"
   guidetolerance="10"
   inkscape:pageopacity="0"
   inkscape:pageshadow="2"
   inkscape:window-width="2558"
   inkscape:window-height="1414"
   id="namedview1069"
   showgrid="false"
   inkscape:zoom="1.454103"
   inkscape:cx="207.80049"
   inkscape:cy="229.6819"
   inkscape:window-x="0"
   inkscape:window-y="24"
   inkscape:window-maximized="1"
   inkscape:current-layer="Capa_1"
   inkscape:document-rotation="0" />
<g
   id="g1036"
   transform="translate(34.905,34.9055)"
   style="fill:#ffffff;fill-opacity:1;stroke:none">
	<path
   d="M 159.845,147.251 V 34.744 C 159.845,15.586 144.255,0 125.093,0 105.934,0 90.347,15.586 90.347,34.744 V 147.25 c -14.234,10.843 -22.617,27.59 -22.617,45.575 0,31.631 25.732,57.364 57.363,57.364 31.633,0 57.367,-25.733 57.367,-57.364 0,-17.983 -8.383,-34.73 -22.615,-45.574 z m -34.752,87.938 c -23.359,0 -42.363,-19.004 -42.363,-42.364 0,-14.294 7.188,-27.537 19.228,-35.425 2.115,-1.386 3.39,-3.745 3.39,-6.273 V 34.744 c 0,-10.887 8.858,-19.744 19.746,-19.744 10.892,0 19.752,8.857 19.752,19.744 v 116.383 c 0,2.529 1.274,4.887 3.39,6.273 12.038,7.889 19.226,21.132 19.226,35.425 -0.002,23.36 -19.008,42.364 -42.369,42.364 z"
   id="path1032"
   style="fill:#ffffff;fill-opacity:1;stroke:none" />
	<path
   d="M 132.595,169.042 V 69.924 c 0,-4.142 -3.357,-7.5 -7.5,-7.5 -4.143,0 -7.5,3.358 -7.5,7.5 v 99.118 c -10.104,3.183 -17.43,12.622 -17.43,23.783 0,13.767 11.16,24.931 24.93,24.931 13.773,0 24.932,-11.164 24.932,-24.931 -10e-4,-11.162 -7.327,-20.602 -17.432,-23.783 z"
   id="path1034"
   style="fill:#ffffff;fill-opacity:1;stroke:none" />
</g>
<g
   id="g1038"
   style="fill:#ffffff;fill-opacity:1;stroke:none">
</g>
<g
   id="g1040"
   style="fill:#ffffff;fill-opacity:1;stroke:none">
</g>
<g
   id="g1042"
   style="fill:#ffffff;fill-opacity:1;stroke:none">
</g>
<g
   id="g1044"
   style="fill:#ffffff;fill-opacity:1;stroke:none">
</g>
<g
   id="g1046"
   style="fill:#ffffff;fill-opacity:1;stroke:none">
</g>
<g
   id="g1048"
   style="fill:#ffffff;fill-opacity:1;stroke:none">
</g>
<g
   id="g1050"
   style="fill:#ffffff;fill-opacity:1;stroke:none">
</g>
<g
   id="g1052"
   style="fill:#ffffff;fill-opacity:1;stroke:none">
</g>
<g
   id="g1054"
   style="fill:#ffffff;fill-opacity:1;stroke:none">
</g>
<g
   id="g1056"
   style="fill:#ffffff;fill-opacity:1;stroke:none">
</g>
<g
   id="g1058"
   style="fill:#ffffff;fill-opacity:1;stroke:none">
</g>
<g
   id="g1060"
   style="fill:#ffffff;fill-opacity:1;stroke:none">
</g>
<g
   id="g1062"
   style="fill:#ffffff;fill-opacity:1;stroke:none">
</g>
<g
   id="g1064"
   style="fill:#ffffff;fill-opacity:1;stroke:none">
</g>
<g
   id="g1066"
   style="fill:#ffffff;fill-opacity:1;stroke:none">
</g>
<xhtml:iframe
   class="cleanslate hidden"
   src="temperature_files/commandline.html"
   id="cmdline_iframe"
   style="height: 0px !important;" /></svg>
