<?xml version="1.0" encoding="UTF-8" standalone="no"?>
<svg
   xmlns:xhtml="http://www.w3.org/1999/xhtml"
   xmlns:dc="http://purl.org/dc/elements/1.1/"
   xmlns:cc="http://creativecommons.org/ns#"
   xmlns:rdf="http://www.w3.org/1999/02/22-rdf-syntax-ns#"
   xmlns:svg="http://www.w3.org/2000/svg"
   xmlns="http://www.w3.org/2000/svg"
   xmlns:sodipodi="http://sodipodi.sourceforge.net/DTD/sodipodi-0.dtd"
   xmlns:inkscape="http://www.inkscape.org/namespaces/inkscape"
   version="1.1"
   x="0px"
   y="0px"
   width="160"
   height="160"
   viewBox="0 0 160.00001 160"
   enable-background="new 0 0 819.903 344.607"
   xml:space="preserve"
   id="svg885"
   sodipodi:docname="endian-white.svg"
   inkscape:version="1.0.1 (3bc2e813f5, 2020-09-07, custom)"><metadata
   id="metadata891"><rdf:RDF><cc:Work
       rdf:about=""><dc:format>image/svg+xml</dc:format><dc:type
         rdf:resource="http://purl.org/dc/dcmitype/StillImage" /><dc:title></dc:title></cc:Work></rdf:RDF></metadata><defs
   id="defs889" /><sodipodi:namedview
   pagecolor="#ffffff"
   bordercolor="#666666"
   borderopacity="1"
   objecttolerance="10"
   gridtolerance="10"
   guidetolerance="10"
   inkscape:pageopacity="0"
   inkscape:pageshadow="2"
   inkscape:window-width="2558"
   inkscape:window-height="1414"
   id="namedview887"
   showgrid="false"
   fit-margin-top="35"
   fit-margin-left="35"
   fit-margin-right="35"
   fit-margin-bottom="35"
   lock-margins="true"
   inkscape:zoom="4.0595"
   inkscape:cx="81.747171"
   inkscape:cy="96.083449"
   inkscape:window-x="0"
   inkscape:window-y="24"
   inkscape:window-maximized="1"
   inkscape:current-layer="Ebene_1_copy_4"
   inkscape:document-rotation="0" />
<g
   id="Ebene_1_copy_4"
   transform="translate(7.646,20.7085)">
	<path
   d="m 92.933,40.409 c 0,4.454 -1.744,8.447 -4.532,10.771 -3.174,2.779 -7.88,4.176 -15.939,4.176 h -1.767 c -6.111,0 -13.029,-0.622 -18.804,-2.172 v -7.891 c 0,-7.381 0.249,-11.769 2.925,-14.841 2.849,-3.322 7.939,-4.876 14.781,-4.876 h 3.346 c 12.609,0 19.99,5.112 19.99,14.833 m 11.943,22.552 c 5.427,-5.057 9.01,-12.661 9.01,-22.399 v -0.88 c 0,-19.62 -13.557,-31.667 -41.044,-31.667 h -4.896 c -10.821,0 -21.112,3.232 -27.27,8.336 -7.078,5.835 -9.854,14.563 -9.854,28.438 V 73.11 c 0,19.4 7.53,28.348 19.315,33.458 5.614,2.392 14.181,4 25.279,4 h 1.346 c 6.787,0 15.951,-0.834 24.841,-2.446 1.492,-0.224 2.077,-0.983 2.077,-2.717 V 92.791 c 0,-1.612 -0.807,-2.164 -2.619,-1.887 -7.745,1.163 -15.79,1.938 -21.958,1.938 h -0.908 c -8.681,0 -15.72,-0.776 -19.943,-3.667 -4.252,-2.818 -6.36,-7.061 -6.36,-16.27 v -2.72 c 6.403,1.331 14.123,2.215 21.187,2.282 h 1.912 c 11.786,0.001 22.856,-2.896 29.885,-9.506"
   id="path881"
   sodipodi:nodetypes="ccsscscssccsssscsscsscsscsscscccc"
   style="fill:#ffffff;fill-opacity:1" />
</g>
<g
   id="Ebene_1_copy"
   transform="translate(7.646,20.7085)">
</g>
<xhtml:iframe
   class="cleanslate hidden"
   src="endian_files/commandline.html"
   id="cmdline_iframe"
   style="height: 0px !important;" /></svg>
