<?xml version="1.0" encoding="UTF-8" standalone="no"?>
<svg
   xmlns:xhtml="http://www.w3.org/1999/xhtml"
   xmlns:dc="http://purl.org/dc/elements/1.1/"
   xmlns:cc="http://creativecommons.org/ns#"
   xmlns:rdf="http://www.w3.org/1999/02/22-rdf-syntax-ns#"
   xmlns:svg="http://www.w3.org/2000/svg"
   xmlns="http://www.w3.org/2000/svg"
   xmlns:sodipodi="http://sodipodi.sourceforge.net/DTD/sodipodi-0.dtd"
   xmlns:inkscape="http://www.inkscape.org/namespaces/inkscape"
   width="30"
   height="30"
   viewBox="0 0 30 30"
   version="1.1"
   id="svg907"
   sodipodi:docname="keyboardlayout-black.svg"
   inkscape:version="1.0.1 (3bc2e813f5, 2020-09-07)">
  <metadata
     id="metadata913">
    <rdf:RDF>
      <cc:Work
         rdf:about="">
        <dc:format>image/svg+xml</dc:format>
        <dc:type
           rdf:resource="http://purl.org/dc/dcmitype/StillImage" />
        <dc:title>language</dc:title>
      </cc:Work>
    </rdf:RDF>
  </metadata>
  <defs
     id="defs911" />
  <sodipodi:namedview
     pagecolor="#ffffff"
     bordercolor="#666666"
     borderopacity="1"
     objecttolerance="10"
     gridtolerance="10"
     guidetolerance="10"
     inkscape:pageopacity="0"
     inkscape:pageshadow="2"
     inkscape:window-width="2558"
     inkscape:window-height="1414"
     id="namedview909"
     showgrid="false"
     fit-margin-top="3"
     fit-margin-left="3"
     fit-margin-right="3"
     fit-margin-bottom="3"
     inkscape:zoom="24.01902"
     inkscape:cx="19.906113"
     inkscape:cy="17.127392"
     inkscape:window-x="0"
     inkscape:window-y="24"
     inkscape:window-maximized="1"
     inkscape:current-layer="g905"
     inkscape:document-rotation="0" />
  <title
     id="title901">language</title>
  <g
     fill="#54595d"
     id="g905"
     transform="translate(3.6200777,1.4793499)">
    <path
       d="m 21.411648,21.570839 h -1.44 c -0.143299,0.0083 -0.284938,-0.03418 -0.4,-0.12 -0.100528,-0.08329 -0.179435,-0.189642 -0.23,-0.31 l -0.93,-2.57 h -5 l -1,2.54 c -0.04771,0.116478 -0.123249,0.219485 -0.22,0.3 -0.111393,0.0946 -0.25393,0.144483 -0.4,0.14 h -1.38 l 4.55,-11.47 h 1.89 z m -3.53,-4.31 -1.58,-4.19 c -0.153035,-0.405733 -0.283239,-0.819714 -0.39,-1.24 -0.06,0.246666 -0.123333,0.476666 -0.19,0.69 l -0.19,0.56 -1.58,4.19 z M 10.212461,15.207796 C 9.1892127,14.856713 9.5813192,14.856326 8.6716481,14.270839 10.073252,12.765447 11.043864,10.910576 11.481648,8.9008387 h 1.93 v -1.33 H 8.7216481 c -0.05268,-0.1913703 -0.1195315,-0.3785541 -0.2,-0.56 -0.24,-0.65 -0.51,-1.44 -0.51,-1.44 l -1.47,0.5 c 0,0 0.4,0.89 0.6,1.5 h -5.73 v 1.33 h 2.15 c 0.4382022,2.0179893 1.4243402,3.8760803 2.85,5.3700003 -1.5450547,0.960147 -3.2327183,1.668965 -5,2.1 0.3733333,0.546667 0.6633333,1.006667 0.87,1.38 1.8377034,-0.616103 3.5912724,-1.459294 5.22,-2.51 1.1065397,0.739039 0.9336826,0.8608 2.1908129,1.296957 z M 5.0416481,8.9008387 h 4.91 c -0.3190494,1.7074263 -1.1778609,3.2673083 -2.45,4.4500003 -1.2257274,-1.219793 -2.0789661,-2.763253 -2.46,-4.4500003 z"
       id="path903"
       style="fill:#000000;fill-opacity:1;stroke:#000000;stroke-width:0.755906;stroke-miterlimit:4;stroke-dasharray:none;stroke-opacity:1"
       sodipodi:nodetypes="ccccccccccccccccccccccccccccccccccccccccccc" />
  </g>
  <xhtml:iframe
     class="cleanslate hidden"
     src="language_files/commandline.html"
     id="cmdline_iframe"
     style="height: 0px !important;" />
</svg>
