<?xml version="1.0" encoding="UTF-8" standalone="no"?>
<svg
   xmlns:dc="http://purl.org/dc/elements/1.1/"
   xmlns:cc="http://creativecommons.org/ns#"
   xmlns:rdf="http://www.w3.org/1999/02/22-rdf-syntax-ns#"
   xmlns:svg="http://www.w3.org/2000/svg"
   xmlns="http://www.w3.org/2000/svg"
   xmlns:sodipodi="http://sodipodi.sourceforge.net/DTD/sodipodi-0.dtd"
   xmlns:inkscape="http://www.inkscape.org/namespaces/inkscape"
   width="6.2333398mm"
   height="6.2333331mm"
   viewBox="0 0 6.2333398 6.2333331"
   version="1.1"
   id="svg878"
   inkscape:version="1.0.1 (3bc2e813f5, 2020-09-07)"
   sodipodi:docname="brightness-black.svg">
  <defs
     id="defs872" />
  <sodipodi:namedview
     id="base"
     pagecolor="#ffffff"
     bordercolor="#666666"
     borderopacity="1.0"
     inkscape:pageopacity="0.0"
     inkscape:pageshadow="2"
     inkscape:zoom="25.808781"
     inkscape:cx="15.462057"
     inkscape:cy="17.23937"
     inkscape:document-units="mm"
     inkscape:current-layer="layer1"
     inkscape:document-rotation="0"
     showgrid="true"
     fit-margin-top="1"
     fit-margin-left="1"
     fit-margin-right="1"
     fit-margin-bottom="1"
     inkscape:window-width="2558"
     inkscape:window-height="1414"
     inkscape:window-x="0"
     inkscape:window-y="24"
     inkscape:window-maximized="1">
    <inkscape:grid
       type="xygrid"
       id="grid1447" />
  </sodipodi:namedview>
  <metadata
     id="metadata875">
    <rdf:RDF>
      <cc:Work
         rdf:about="">
        <dc:format>image/svg+xml</dc:format>
        <dc:type
           rdf:resource="http://purl.org/dc/dcmitype/StillImage" />
        <dc:title></dc:title>
      </cc:Work>
    </rdf:RDF>
  </metadata>
  <g
     inkscape:label="Layer 1"
     inkscape:groupmode="layer"
     id="layer1"
     transform="translate(-84.674205,-81.55)">
    <path
       style="color:#000000;display:inline;overflow:visible;visibility:visible;fill:#000000;fill-opacity:1;fill-rule:nonzero;stroke:none;stroke-width:0.396875;marker:none;enable-background:accumulate"
       d="m 87.220365,82.55 -0.19843,0.785482 -0.77722,-0.214974 0.21498,0.777213 -0.78549,0.198438 0.57878,0.570508 -0.57878,0.570508 0.78549,0.198437 -0.21498,0.777214 0.77722,-0.214974 0.19843,0.785481 0.57051,-0.578776 0.57051,0.578776 0.19844,-0.785481 0.77721,0.214974 -0.21497,-0.777214 0.78548,-0.198437 -0.57878,-0.570508 0.57878,-0.570508 -0.78548,-0.198438 0.21497,-0.777213 -0.77721,0.214974 -0.19844,-0.785482 -0.57051,0.578776 z m 0.57051,0.79375 c 0.73063,0 1.32292,0.59229 1.32292,1.322917 0,0.730626 -0.59229,1.322916 -1.32292,1.322916 z"
       id="path3075" />
  </g>
</svg>
