<?xml version="1.0" encoding="UTF-8" standalone="no"?>
<svg
   xmlns:xhtml="http://www.w3.org/1999/xhtml"
   xmlns:dc="http://purl.org/dc/elements/1.1/"
   xmlns:cc="http://creativecommons.org/ns#"
   xmlns:rdf="http://www.w3.org/1999/02/22-rdf-syntax-ns#"
   xmlns:svg="http://www.w3.org/2000/svg"
   xmlns="http://www.w3.org/2000/svg"
   xmlns:sodipodi="http://sodipodi.sourceforge.net/DTD/sodipodi-0.dtd"
   xmlns:inkscape="http://www.inkscape.org/namespaces/inkscape"
   version="1.1"
   x="0px"
   y="0px"
   viewBox="0 0 1000 1000"
   enable-background="new 0 0 1000 1000"
   xml:space="preserve"
   id="svg43"
   sodipodi:docname="wifi-black.svg"
   inkscape:version="1.0.1 (3bc2e813f5, 2020-09-07, custom)"><defs
   id="defs47" /><sodipodi:namedview
   pagecolor="#ffffff"
   bordercolor="#666666"
   borderopacity="1"
   objecttolerance="10"
   gridtolerance="10"
   guidetolerance="10"
   inkscape:pageopacity="0"
   inkscape:pageshadow="2"
   inkscape:window-width="2558"
   inkscape:window-height="1414"
   id="namedview45"
   showgrid="false"
   inkscape:zoom="0.845"
   inkscape:cx="500"
   inkscape:cy="500"
   inkscape:window-x="0"
   inkscape:window-y="24"
   inkscape:window-maximized="1"
   inkscape:current-layer="g41"
   inkscape:document-rotation="0" />
<metadata
   id="metadata37"> Svg Vector Icons : http://www.onlinewebfonts.com/icon <rdf:RDF><cc:Work
     rdf:about=""><dc:format>image/svg+xml</dc:format><dc:type
       rdf:resource="http://purl.org/dc/dcmitype/StillImage" /><dc:title></dc:title></cc:Work></rdf:RDF></metadata>
<g
   id="g41"><path
     d="m 499.74103,676.23167 c -40.05462,0 -72.51267,32.45805 -72.51267,72.51268 0,40.0546 32.45805,72.51265 72.51267,72.51265 40.05461,0 72.51266,-32.45805 72.51266,-72.51265 -0.0863,-40.05463 -32.54437,-72.51268 -72.51266,-72.51268 z m 177.13808,-87.70578 c -43.68025,-48.34178 -106.86986,-78.64172 -177.13808,-78.64172 -70.26823,0 -133.45784,30.38626 -177.13809,78.64172 l 0.25898,0.25897 c -9.06409,9.32306 -14.67519,22.0991 -14.67519,36.25633 0,28.65977 23.22132,51.96741 51.79477,51.96741 17.43756,0 32.80334,-8.63247 42.21273,-21.84012 24.51618,-25.81106 59.21867,-41.95376 97.63312,-41.95376 38.2418,0 72.85796,15.97005 97.37415,41.60846 9.32306,13.38031 24.86149,22.18542 42.47171,22.18542 28.57344,0 51.79476,-23.22132 51.79476,-51.96741 0,-14.07091 -5.6111,-26.84695 -14.67519,-36.17001 z m 230.48669,-231.09096 0.17264,-0.17265 C 805.24379,247.37106 660.39111,178.743 499.74103,178.743 c -160.65009,0 -305.5891,68.62806 -407.797424,178.51928 l 0.431623,0.43162 c -9.495706,9.40938 -15.365779,22.4444 -15.365779,36.8606 0,28.65976 23.22132,51.96742 51.79476,51.96742 14.32988,0 27.3649,-5.87008 36.77428,-15.36579 l 0.0863,0.0863 c 83.30327,-91.41772 202.17224,-148.65094 334.07624,-148.65094 131.90399,0 250.77296,57.23322 334.0762,148.65096 l 0.3453,-0.3453 c 9.40938,9.58203 22.53072,15.53843 37.03326,15.53843 28.57344,0 51.79476,-23.22132 51.79476,-51.9674 0,-14.50253 -5.9564,-27.62387 -15.62475,-37.03325 z M 787.46092,471.64237 C 715.46621,393.08699 613.17155,343.96829 499.74103,343.96829 c -113.43053,0 -215.63886,49.03237 -287.63358,127.58776 -11.65382,9.06408 -19.25038,23.30764 -19.25038,39.27769 0,27.45123 22.18542,49.72296 49.55032,49.72296 14.32988,0 27.19225,-6.12903 36.25633,-15.88371 l 0.3453,0.3453 c 54.81612,-59.82295 133.37151,-97.37416 220.73201,-97.37416 87.36049,0 165.91588,37.55121 220.732,97.37416 l 0.25898,-0.25898 c 9.06408,9.75468 21.92645,15.88373 36.25633,15.88373 27.3649,0 49.55032,-22.27175 49.55032,-49.72297 -0.0863,-16.05638 -7.51024,-30.21361 -19.07774,-39.2777 z"
     id="path39"
     style="stroke-width:0.863246" /></g>
<xhtml:iframe
   class="cleanslate hidden"
   src="img_76163_files/commandline.html"
   id="cmdline_iframe"
   style="height: 0px !important;" /></svg>
